<svg xmlns="http://www.w3.org/2000/svg" width="256" height="256" viewBox="0 0 100 100"><rect width="100" height="100" rx="20" fill="#ffffff"></rect><path fill="#000000" d="M67.68 38.20L67.68 38.20Q67.68 41.80 65.80 44.44Q63.92 47.08 60.16 48.68L60.16 48.68Q64.80 50.20 67.12 53.24Q69.44 56.28 69.44 60.44L69.44 60.44Q69.44 68.04 63.92 71.72Q58.40 75.40 47.92 75.40L47.92 75.40Q46.40 75.40 44.68 75.32Q42.96 75.24 41.20 75.04Q39.44 74.84 37.68 74.48Q35.92 74.12 34.40 73.64L34.40 73.64Q30.56 72.36 30.56 68.92L30.56 68.92L30.56 29.80Q30.56 28.28 31.36 27.48Q32.16 26.68 33.60 26.20L33.60 26.20Q36.32 25.32 39.92 24.96Q43.52 24.60 47.44 24.60L47.44 24.60Q57.12 24.60 62.40 27.92Q67.68 31.24 67.68 38.20ZM58.88 60.04L58.88 60.04Q58.88 56.84 56.60 55Q54.32 53.16 50 53.16L50 53.16L40.64 53.16L40.64 66.52Q42.16 66.92 44.28 67.08Q46.40 67.24 48.48 67.24L48.48 67.24Q53.36 67.24 56.12 65.52Q58.88 63.80 58.88 60.04ZM40.64 33.16L40.64 45.56L48.72 45.56Q53.04 45.56 55.16 43.80Q57.28 42.04 57.28 38.92L57.28 38.92Q57.28 32.60 47.52 32.60L47.52 32.60Q45.52 32.60 43.72 32.76Q41.92 32.92 40.64 33.16L40.64 33.16Z"></path></svg>